<?xml version="1.0" encoding="utf-8"?>
<!-- Generator: Adobe Illustrator 21.0.2, SVG Export Plug-In . SVG Version: 6.00 Build 0)  -->
<svg version="1.1" id="Layer_1" xmlns="http://www.w3.org/2000/svg" xmlns:xlink="http://www.w3.org/1999/xlink" x="0px" y="0px"
	 viewBox="0 0 40 40" style="enable-background:new 0 0 40 40;" xml:space="preserve">
<style type="text/css">
	.st0{fill:#FFFFFF;stroke:#000000;stroke-miterlimit:10;}
</style>
<title>iconKea</title>
<circle class="st0" cx="20" cy="20.3" r="18.5"/>
<g>
	<path d="M4.9,16.1l3.6-2c3.7-2,7.4-4,11.1-6C19.8,8,20,8,20.3,8.1c4.8,2.6,9.5,5.2,14.3,7.8c0.2,0.1,0.5,0.2,0.5,0.6
		c0,3.4,0,6.9,0,10.3c0,0.1,0,0.2,0,0.3h-2.8v-9.4L30,18.9c-3.2,1.8-6.4,3.5-9.6,5.3c-0.2,0.1-0.5,0.1-0.7,0
		c-4.7-2.6-9.5-5.1-14.2-7.7L4.9,16.1z"/>
	<path d="M10.4,21.4l2.8,1.6c2.1,1.2,4.1,2.5,6.2,3.7c0.3,0.2,0.8,0.2,1.1,0c2.9-1.7,5.7-3.4,8.6-5.1l0.4-0.2c0,0.2,0,0.3,0,0.5
		c0,1.7,0,3.3,0,5c0,0.3-0.2,0.6-0.5,0.8c-2.9,1.6-5.9,3.2-8.8,4.8c-0.2,0.1-0.4,0.1-0.6,0c-3-1.6-6-3.2-8.9-4.9
		c-0.2-0.1-0.3-0.3-0.4-0.5c0-1.8,0-3.6,0-5.4C10.3,21.6,10.4,21.5,10.4,21.4z"/>
</g>
</svg>
