<?xml version="1.0" encoding="utf-8"?>
<!-- Generator: Adobe Illustrator 21.0.2, SVG Export Plug-In . SVG Version: 6.00 Build 0)  -->
<svg version="1.1" id="Layer_2" xmlns="http://www.w3.org/2000/svg" xmlns:xlink="http://www.w3.org/1999/xlink" x="0px" y="0px"
	 viewBox="0 0 209 237" style="enable-background:new 0 0 209 237;" xml:space="preserve">
<style type="text/css">
	.st0{fill:#646464;}
	.st1{fill:#FFFF00;}
	.st2{fill:#00FF00;}
	.st3{fill:none;}
</style>
<title>map</title>
<polygon class="st0" points="89.8,184.3 88.1,183.9 92,166.9 98.9,115.7 103.4,76.2 103.4,76.2 107,54.5 108.7,54.8 105.2,76.5
	100.7,115.9 93.8,167.3 93.8,167.3 "/>
<polygon class="st0" points="117.9,184.2 99,170.2 51.8,155.8 51.7,155.7 34,144.3 35.2,142.5 52.7,153.8 100,168.3 119.2,182.5 "/>
<g>

		<rect x="112.6" y="64.9" transform="matrix(0.1798 -0.9837 0.9837 0.1798 23.1102 174.6385)" class="st1" width="7.3" height="17.2"/>
	<path d="M124.3,78.9l-17.5-3.2l1.4-7.7l17.5,3.2L124.3,78.9z M107.5,75.3l16.4,3l1.2-6.6l-16.4-3L107.5,75.3z"/>
</g>
<g>
	<polygon class="st1" points="98.5,113.2 86.3,107.4 87.5,92.2 100.7,93.1 	"/>
	<path d="M98.7,113.6l-12.7-6L87.3,92l13.7,0.9L98.7,113.6z M86.6,107.2l11.7,5.6l2.2-19.4l-12.7-0.8L86.6,107.2z"/>
</g>
<g>
	<polygon class="st1" points="114.8,104 109.1,103.2 108.6,107.2 103.8,106.2 96.3,152.4 100.8,153.5 114.8,104.4 	"/>
	<path d="M101,153.8l-5.1-1.1l7.6-46.8l4.8,1l0.5-3.9l6.2,0.9v0.7L101,153.8z M96.6,152.2l4.1,0.9l13.9-48.8v-0.1l-5.2-0.7l-0.5,3.9
		l-4.8-1L96.6,152.2z"/>
</g>
<g>
	<polygon class="st2" points="133,82.9 119.4,106.8 110.4,133.7 124.6,137.5 133,105.4 139.9,84.7 	"/>
	<path d="M124.8,137.8l-14.7-4l9.1-27.2l13.6-24.1l7.4,1.9l-7,20.9L124.8,137.8z M110.8,133.5l13.6,3.7l8.3-31.8l6.9-20.4l-6.5-1.7
		L119.7,107L110.8,133.5z"/>
</g>
<g>
	<polygon class="st2" points="81.9,110.5 50.9,95.7 46.8,103.6 54.6,105.5 60.7,115.3 81.6,122.3 	"/>
	<path d="M81.8,122.6l-21.3-7.1l-6.1-9.8l-8.1-2l4.4-8.4l31.4,15L81.8,122.6z M60.9,115.1l20.4,6.8l0.3-11.2L51,96.1l-3.8,7.3
		l7.6,1.9L60.9,115.1z"/>
</g>
<g>
	<line class="st3" x1="99.8" y1="116.2" x2="35.4" y2="84.5"/>

		<rect x="66.7" y="64.5" transform="matrix(0.4423 -0.8969 0.8969 0.4423 -52.3173 116.56)" class="st0" width="1.8" height="71.8"/>
</g>
<path d="M99.1,183.3l-1.6-0.3l0.3-2.1l1.6,0.3L99.1,183.3z M99.8,179.1l-1.6-0.3l0.3-2.1l1.6,0.3L99.8,179.1z M100.4,174.8l-1.6-0.3
	l0.3-2.1l1.6,0.3L100.4,174.8z M101.1,170.6l-1.6-0.3l0.3-2.1l1.6,0.3L101.1,170.6z M101.8,166.3l-1.6-0.3l0.3-2.1l1.6,0.3
	L101.8,166.3z M102.4,162.1l-1.6-0.3l0.3-2.1l1.6,0.3L102.4,162.1z M103.1,157.8l-1.6-0.3l0.3-2.1v-0.1l1.5,0.4v0.1L103.1,157.8z
	 M104,153.7l-1.5-0.5l0.6-2.1l1.5,0.5L104,153.7z M105.2,149.6l-1.5-0.5l0.6-2.1l1.5,0.5L105.2,149.6z M106.3,145.4l-1.5-0.5
	l0.6-2.1l1.5,0.5L106.3,145.4z M107.5,141.3l-1.5-0.5l0.6-2.1l1.5,0.5L107.5,141.3z M108.7,137.2l-1.5-0.5l0.6-2.1l1.5,0.5
	L108.7,137.2z M109.9,133l-1.5-0.5l0.6-2.1l1.5,0.5L109.9,133z M111,128.9l-1.5-0.5l0.6-2v-0.1l1.5,0.6v0.1L111,128.9z M112.3,124.9
	l-1.5-0.6l0.7-2l1.5,0.6L112.3,124.9z M113.8,120.9l-1.5-0.6l0.7-2l1.5,0.6L113.8,120.9z M115.2,116.9l-1.5-0.6l0.7-2l1.5,0.6
	L115.2,116.9z M116.6,112.9l-1.5-0.6l0.7-2l1.5,0.6L116.6,112.9z M118.1,108.9l-1.5-0.6l0.7-2l1.5,0.6L118.1,108.9z M119.8,105.1
	l-1.4-0.8l1-1.9l1.4,0.8L119.8,105.1z M121.9,101.4l-1.4-0.8l1-1.9l1.4,0.8L121.9,101.4z M124,97.6l-1.4-0.8l1-1.9l1.4,0.8L124,97.6
	z M126.1,93.9l-1.4-0.8l1-1.9l1.4,0.8L126.1,93.9z M128.2,90.2l-1.4-0.8l1-1.9l1.4,0.8L128.2,90.2z M130.3,86.4l-1.4-0.8l1-1.9
	l1.4,0.8L130.3,86.4z M132.4,82.7l-1.4-0.8l1-1.9l1.4,0.8L132.4,82.7z M134.5,78.9l-1.5-1.1l1-1.9l1.4,0.8L134.5,78.9z M136.6,75.2
	l-1.4-0.8l1-1.9l1.4,0.8L136.6,75.2z M138.7,71.5l-1.4-0.8l0.7-1.3l0.6-0.6l1.1,1.2l-0.4,0.5L138.7,71.5z M141.2,68.3l-1.2-1.4
	l1.5-1.5l1.1,1.2L141.2,68.3z M144.2,65.3l-1.2-1.4l1.5-1.5l1.1,1.2L144.2,65.3z M147.2,62.2l-1.2-1.4l1.5-1.5l1.1,1.2L147.2,62.2z
	 M150.2,59.2l-1.1-1.2l1.5-1.5l1.1,1.2L150.2,59.2z"/>
<g>
	<polygon class="st2" points="159.7,105.2 148.6,95 144.5,102.3 156.6,110 	"/>
	<path d="M156.7,110.3l-12.6-7.9l4.4-7.8l11.5,10.6L156.7,110.3z M144.9,102.2l11.7,7.4l2.8-4.4l-10.6-9.8L144.9,102.2z"/>
</g>
<g>
	<polygon class="st2" points="143.6,111.4 140.4,117.8 148.8,121.6 151.4,115.7 	"/>
	<path d="M148.9,121.9l-8.9-4l3.5-6.9l8.3,4.5L148.9,121.9z M140.8,117.7l7.9,3.5l2.5-5.4l-7.4-4L140.8,117.7z"/>
</g>
<g>
	<polygon class="st2" points="137.7,124.4 135.2,130.8 144,133.9 146.1,127.8 	"/>
	<path d="M144.1,134.2l-9.3-3.2l2.7-6.9l8.9,3.6L144.1,134.2z M135.6,130.7l8.2,2.9l2-5.6l-7.9-3.2L135.6,130.7z"/>
</g>
<g>
	<polygon class="st2" points="133.1,138.1 146.3,141.7 144.5,148.3 131.7,144.9 	"/>
	<path d="M144.7,148.6l-13.3-3.5l1.5-7.3l13.7,3.7L144.7,148.6z M132,144.7l12.3,3.3l1.6-6.1l-12.7-3.4L132,144.7z"/>
</g>
<g>
	<polygon class="st2" points="133.1,148.7 130.2,160.8 134.9,162 138.1,149.7 	"/>
	<path d="M135.1,162.4l-5.1-1.4l3-12.6l5.5,1.2L135.1,162.4z M130.6,160.6l4.1,1.1l3.1-11.8l-4.5-1L130.6,160.6z"/>
</g>
<g>
	<polygon class="st2" points="140.2,170.7 123,166.6 126.9,151.7 129.6,152.4 126.5,164.5 138.1,167.3 141.2,155.6 143.9,156.3 	"/>
	<path d="M140.4,171l-17.8-4.2l4.1-15.5l3.3,0.9l-3.2,12.1l11.1,2.7l3-11.7l3.3,0.9L140.4,171z M123.3,166.4l16.7,3.9l3.6-13.9
		l-2.2-0.6l-3,11.7l-12.2-2.9l3.2-12.1l-2.2-0.6L123.3,166.4z"/>
</g>
</svg>
