<svg id="Layer_2" data-name="Layer 2" xmlns="http://www.w3.org/2000/svg" width="209" height="237" viewBox="0 0 209 237">
  <title>map</title>
  <g>
    <polygon points="89.83 184.25 88.09 183.85 92 166.95 98.95 115.65 103.41 76.23 103.41 76.21 106.98 54.46 108.74 54.75 105.18 76.48 100.72 115.88 93.76 167.27 93.75 167.31 89.83 184.25" fill="#646464"/>
    <polygon points="117.92 184.19 98.99 170.22 51.78 155.79 51.65 155.71 34 144.29 35.16 142.5 52.69 153.83 99.97 168.28 119.19 182.47 117.92 184.19" fill="#646464"/>
    <g>
      <rect x="107.68" y="69.82" width="17.22" height="7.27" transform="translate(15.1 -19.71) rotate(10.36)" fill="#ff0"/>
      <path d="M124.32,78.89,106.85,75.7l1.4-7.68,17.47,3.19Zm-16.85-3.62,16.42,3,1.21-6.62-16.42-3Z"/>
    </g>
    <g>
      <polygon points="98.5 113.17 86.29 107.38 87.53 92.22 100.73 93.12 98.5 113.17" fill="#ff0"/>
      <path d="M98.72,113.58l-12.72-6,1.28-15.6,13.74.93Zm-12.16-6.36,11.71,5.55,2.16-19.41-12.65-.85Z"/>
    </g>
    <g>
      <polygon points="114.82 104.04 109.11 103.23 108.63 107.16 103.8 106.16 96.25 152.44 100.82 153.47 114.83 104.39 114.82 104.04" fill="#ff0"/>
      <path d="M101,153.79l-5.06-1.13,7.63-46.81,4.82,1,.48-3.91,6.21.88v.66Zm-4.45-1.55,4.07.91,13.93-48.8v-.09l-5.22-.74-.48,3.95-4.84-1Z"/>
    </g>
    <g>
      <polygon points="133 82.95 119.45 106.85 110.44 133.68 124.62 137.51 133 105.42 139.95 84.74 133 82.95" fill="lime"/>
      <path d="M124.81,137.84l-14.71-4,9.12-27.15,13.65-24.07,7.43,1.91-7,20.95Zm-14-4.35,13.64,3.69,8.32-31.85,6.86-20.41-6.48-1.66L119.69,107Z"/>
    </g>
    <g>
      <polygon points="81.92 110.5 50.9 95.7 46.79 103.55 54.64 105.51 60.7 115.31 81.56 122.27 81.92 110.5" fill="lime"/>
      <path d="M81.82,122.64l-21.29-7.1-6.06-9.8-8.07-2,4.38-8.37,31.41,15Zm-20.94-7.54,20.43,6.81.34-11.23L51,96.05l-3.82,7.32,7.62,1.91Z"/>
    </g>
    <g>
      <line x1="99.75" y1="116.21" x2="35.38" y2="84.47" fill="lime"/>
      <rect x="66.67" y="64.46" width="1.78" height="71.76" transform="translate(-52.31 116.56) rotate(-63.75)" fill="#646464"/>
    </g>
    <path d="M99.08,183.33l-1.58-.26.33-2.13,1.58.26Zm.67-4.25-1.58-.26.33-2.13,1.58.26Zm.67-4.25-1.58-.26.33-2.13,1.58.26Zm.67-4.25-1.58-.26.33-2.13,1.58.26Zm.67-4.25-1.58-.26.33-2.13,1.58.26Zm.67-4.25-1.58-.26.33-2.13,1.58.26Zm.67-4.25-1.58-.26.34-2.12,0-.1,1.54.45,0,.05Zm.91-4.1-1.54-.46.59-2.07,1.54.46Zm1.17-4.14-1.54-.46.59-2.07,1.54.46Zm1.17-4.14-1.54-.46.59-2.07,1.54.46Zm1.17-4.14-1.54-.46.59-2.07,1.54.46Zm1.17-4.14-1.54-.46.59-2.07,1.54.46Zm1.17-4.14-1.54-.46.59-2.07,1.54.46Zm1.17-4.14-1.54-.46.56-2,0-.14,1.51.56,0,.11Zm1.3-4-1.51-.56.72-2,1.51.56Zm1.44-4-1.51-.56.72-2,1.51.56Zm1.44-4-1.51-.56.72-2,1.51.56Zm1.44-4-1.51-.56.72-2,1.51.56Zm1.44-4-1.51-.56.72-2,1.51.56Zm1.68-3.78-1.39-.81,1-1.87,1.39.81Zm2.1-3.74-1.39-.81,1-1.87,1.39.81Zm2.1-3.74-1.39-.81,1-1.87,1.39.81Zm2.1-3.74-1.39-.81,1-1.87,1.39.81Zm2.1-3.74-1.39-.81,1-1.87,1.39.81Zm2.1-3.74-1.39-.81,1-1.87,1.39.81Zm2.1-3.74-1.39-.81,1-1.87,1.39.81Zm2.1-3.74L133,77.87l1-1.87,1.39.81Zm2.1-3.74-1.39-.81,1-1.87,1.39.81Zm2.1-3.74-1.39-.81.73-1.31.59-.61,1.14,1.15-.44.46Zm2.56-3.12L140,66.94l1.48-1.53,1.14,1.15Zm3-3.06L143,63.88l1.48-1.53,1.14,1.15Zm3-3.06L146,60.81l1.48-1.53,1.14,1.15Zm3-3.06-1.14-1.15,1.48-1.53,1.14,1.15Z"/>
    <g>
      <path d="M95.81,170.85h3.47l.08,0a.93.93,0,0,1,.67.47l.37.65c.31.54.62,1.07.93,1.61a3.59,3.59,0,0,1,.48,1v.25a2.73,2.73,0,0,1-.14.37c-.27.49-.55,1-.83,1.45l-.77,1.33a1,1,0,0,1-.55.49l-.23.06H95.79a.87.87,0,0,1-.69-.43c-.29-.48-.56-1-.84-1.45l-.59-1c-.1-.18-.21-.36-.3-.54a1.69,1.69,0,0,1-.08-.27q0-.1,0-.2l0-.08a1.7,1.7,0,0,1,.24-.51l.82-1.43.71-1.23a.9.9,0,0,1,.58-.44Zm3.62,1.49h-.07l-.61-.06L98,172.2a5.16,5.16,0,0,0-.83,0,3.09,3.09,0,0,0-.81.2,1.38,1.38,0,0,0-.66.51,1.33,1.33,0,0,0-.15,1.09,1,1,0,0,0,.35.53,1.61,1.61,0,0,0,.51.26,8.8,8.8,0,0,0,1.14.22,1.83,1.83,0,0,1,.54.17.43.43,0,0,1,.23.52.48.48,0,0,1-.3.32,2,2,0,0,1-.78.13,6,6,0,0,1-.89,0l-.71-.1-.23,0c0,.26,0,.52,0,.77,0,0,0,0,0,0l.88.11.71,0c.21,0,.42,0,.63,0a4.86,4.86,0,0,0,.53-.06,2.21,2.21,0,0,0,.9-.35,1.25,1.25,0,0,0,.57-1.06,2.19,2.19,0,0,0,0-.35,1,1,0,0,0-.32-.61,1.59,1.59,0,0,0-.64-.35,10.74,10.74,0,0,0-1.18-.24,1.5,1.5,0,0,1-.55-.19.38.38,0,0,1-.19-.32.39.39,0,0,1,.29-.39,1.5,1.5,0,0,1,.53-.09l.81,0,.57,0,.45,0Z" fill="red"/>
      <path d="M99.43,172.34v.76l-.45,0-.57,0-.81,0a1.5,1.5,0,0,0-.53.09.39.39,0,0,0-.29.39.38.38,0,0,0,.19.32,1.5,1.5,0,0,0,.55.19,10.74,10.74,0,0,1,1.18.24,1.59,1.59,0,0,1,.64.35,1,1,0,0,1,.32.61,2.19,2.19,0,0,1,0,.35,1.25,1.25,0,0,1-.57,1.06,2.21,2.21,0,0,1-.9.35,4.86,4.86,0,0,1-.53.06c-.21,0-.42,0-.63,0l-.71,0-.88-.11s0,0,0,0c0-.26,0-.51,0-.77l.23,0,.71.1a6,6,0,0,0,.89,0,2,2,0,0,0,.78-.13.48.48,0,0,0,.3-.32.43.43,0,0,0-.23-.52,1.83,1.83,0,0,0-.54-.17,8.8,8.8,0,0,1-1.14-.22,1.61,1.61,0,0,1-.51-.26,1,1,0,0,1-.35-.53,1.33,1.33,0,0,1,.15-1.09,1.38,1.38,0,0,1,.66-.51,3.09,3.09,0,0,1,.81-.2,5.16,5.16,0,0,1,.83,0l.75.06.61.06Z" fill="#fff"/>
    </g>
    <g>
      <path d="M136.46,70.83h3.47l.08,0a.93.93,0,0,1,.67.47L141,72c.31.54.62,1.07.93,1.61a3.59,3.59,0,0,1,.48,1v.25a2.73,2.73,0,0,1-.14.37c-.27.49-.55,1-.83,1.45l-.77,1.33a1,1,0,0,1-.55.49l-.23.06h-3.49a.87.87,0,0,1-.69-.43c-.29-.48-.56-1-.84-1.45l-.59-1c-.1-.18-.21-.36-.3-.54a1.69,1.69,0,0,1-.08-.27q0-.1,0-.2l0-.08a1.7,1.7,0,0,1,.24-.51l.82-1.43.71-1.23a.9.9,0,0,1,.58-.44Zm3.62,1.49H140l-.61-.06-.75-.06a5.16,5.16,0,0,0-.83,0,3.09,3.09,0,0,0-.81.2,1.38,1.38,0,0,0-.66.51,1.33,1.33,0,0,0-.15,1.09,1,1,0,0,0,.35.53,1.61,1.61,0,0,0,.51.26,8.8,8.8,0,0,0,1.14.22,1.83,1.83,0,0,1,.54.17.43.43,0,0,1,.23.52.48.48,0,0,1-.3.32,2,2,0,0,1-.78.13,6,6,0,0,1-.89,0l-.71-.1-.23,0c0,.26,0,.52,0,.77,0,0,0,0,0,0l.88.11.71,0c.21,0,.42,0,.63,0a4.86,4.86,0,0,0,.53-.06,2.21,2.21,0,0,0,.9-.35,1.25,1.25,0,0,0,.57-1.06,2.19,2.19,0,0,0,0-.35,1,1,0,0,0-.32-.61,1.59,1.59,0,0,0-.64-.35,10.74,10.74,0,0,0-1.18-.24,1.5,1.5,0,0,1-.55-.19.38.38,0,0,1-.19-.32.39.39,0,0,1,.29-.39,1.5,1.5,0,0,1,.53-.09l.81,0,.57,0,.45,0Z" fill="red"/>
      <path d="M140.08,72.32v.76l-.45,0-.57,0-.81,0a1.5,1.5,0,0,0-.53.09.39.39,0,0,0-.29.39.38.38,0,0,0,.19.32,1.5,1.5,0,0,0,.55.19,10.74,10.74,0,0,1,1.18.24,1.59,1.59,0,0,1,.64.35,1,1,0,0,1,.32.61,2.19,2.19,0,0,1,0,.35,1.25,1.25,0,0,1-.57,1.06,2.21,2.21,0,0,1-.9.35,4.86,4.86,0,0,1-.53.06c-.21,0-.42,0-.63,0l-.71,0-.88-.11s0,0,0,0c0-.26,0-.51,0-.77l.23,0,.71.1a6,6,0,0,0,.89,0,2,2,0,0,0,.78-.13.48.48,0,0,0,.3-.32.43.43,0,0,0-.23-.52,1.83,1.83,0,0,0-.54-.17,8.8,8.8,0,0,1-1.14-.22,1.61,1.61,0,0,1-.51-.26,1,1,0,0,1-.35-.53,1.33,1.33,0,0,1,.15-1.09,1.38,1.38,0,0,1,.66-.51,3.09,3.09,0,0,1,.81-.2,5.16,5.16,0,0,1,.83,0l.75.06.61.06Z" fill="#fff"/>
    </g>
    <g>
      <polygon points="159.66 105.15 148.6 94.99 144.5 102.3 156.62 109.97 159.66 105.15" fill="lime"/>
      <path d="M156.71,110.34l-12.57-7.95,4.39-7.83L160,105.11Zm-11.85-8.13,11.68,7.39,2.77-4.4-10.64-9.78Z"/>
    </g>
    <g>
      <polygon points="143.61 111.39 140.4 117.81 148.78 121.56 151.45 115.67 143.61 111.39" fill="lime"/>
      <path d="M148.91,121.91l-8.88-4,3.46-6.92,8.31,4.53Zm-8.15-4.23,7.88,3.52,2.46-5.42-7.38-4Z"/>
    </g>
    <g>
      <polygon points="137.72 124.41 135.23 130.83 143.97 133.86 146.1 127.8 137.72 124.41" fill="lime"/>
      <path d="M144.13,134.2,134.88,131l2.69-6.93,8.87,3.58Zm-8.55-3.53,8.22,2.85,2-5.57-7.89-3.19Z"/>
    </g>
    <g>
      <polygon points="133.09 138.14 146.28 141.7 144.5 148.3 131.66 144.91 133.09 138.14" fill="lime"/>
      <path d="M144.69,148.63l-13.34-3.52,1.54-7.3,13.73,3.71ZM132,144.72,144.31,148l1.64-6.08-12.66-3.42Z"/>
    </g>
    <g>
      <polygon points="133.09 148.66 130.24 160.78 134.87 162.03 138.08 149.73 133.09 148.66" fill="lime"/>
      <path d="M135.06,162.36,129.92,161l3-12.63,5.52,1.18Zm-4.51-1.77,4.13,1.11,3.07-11.77-4.46-1Z"/>
    </g>
    <g>
      <polygon points="140.18 170.69 122.96 166.65 126.9 151.68 129.65 152.41 126.46 164.54 138.12 167.28 141.16 155.61 143.92 156.32 140.18 170.69" fill="lime"/>
      <path d="M140.37,171l-17.75-4.16,4.08-15.49,3.28.86-3.19,12.13L137.93,167l3-11.67,3.28.85Zm-17.09-4.56,16.7,3.92,3.61-13.85-2.24-.58-3,11.66-12.18-2.86,3.19-12.14-2.24-.59Z"/>
    </g>
  </g>
</svg>
